<?xml version="1.0" encoding="UTF-8" standalone="no"?>
<!-- Created with Inkscape (http://www.inkscape.org/) -->

<svg
   xmlns:dc="http://purl.org/dc/elements/1.1/"
   xmlns:cc="http://creativecommons.org/ns#"
   xmlns:rdf="http://www.w3.org/1999/02/22-rdf-syntax-ns#"
   xmlns:svg="http://www.w3.org/2000/svg"
   xmlns="http://www.w3.org/2000/svg"
   xmlns:sodipodi="http://sodipodi.sourceforge.net/DTD/sodipodi-0.dtd"
   xmlns:inkscape="http://www.inkscape.org/namespaces/inkscape"
   width="241.69792"
   height="210.53174"
   id="svg2"
   version="1.1"
   inkscape:version="0.48.5 r10040">
  <defs
     id="defs4">
    <inkscape:path-effect
       effect="spiro"
       id="path-effect3063"
       is_visible="true" />
  </defs>
  <sodipodi:namedview
     id="base"
     pagecolor="#ffffff"
     bordercolor="#666666"
     borderopacity="1.0"
     inkscape:pageopacity="0.0"
     inkscape:pageshadow="2"
     inkscape:zoom="1.4"
     inkscape:cx="-107.48737"
     inkscape:cy="11.235843"
     inkscape:document-units="px"
     inkscape:current-layer="g3895"
     showgrid="false"
     inkscape:window-width="1597"
     inkscape:window-height="1011"
     inkscape:window-x="181"
     inkscape:window-y="0"
     inkscape:window-maximized="0"
     fit-margin-top="0"
     fit-margin-left="0"
     fit-margin-right="0"
     fit-margin-bottom="0" />
  <metadata
     id="metadata7">
    <rdf:RDF>
      <cc:Work
         rdf:about="">
        <dc:format>image/svg+xml</dc:format>
        <dc:type
           rdf:resource="http://purl.org/dc/dcmitype/StillImage" />
        <dc:title></dc:title>
      </cc:Work>
    </rdf:RDF>
  </metadata>
  <g
     inkscape:label="Layer 1"
     inkscape:groupmode="layer"
     id="layer1"
     transform="translate(-181.91019,-82.792383)">
    <g
       id="g3895">
      <g
         id="g4026">
        <path
           style="fill:#000000;fill-opacity:1;fill-rule:nonzero;stroke:none"
           id="path2991"
           d="m 353.9537,232.40944 c -0.0758,-0.6775 -0.0284,-1.38047 -0.22744,-2.03249 -1.60867,-5.26997 -6.76988,-9.35228 -11.44115,-11.75776 -1.71174,-0.88146 -3.55678,-1.47558 -5.33518,-2.21338 -5.71021,-1.49918 -11.23237,-1.16973 -16.83214,0.59386 -1.77173,0.55798 -6.54088,3.31018 -5.18588,2.0396 1.97505,-1.852 4.43978,-4.06783 7.14024,-3.87219 2.15103,0.15583 -3.37849,2.68156 -5.06774,4.02234 -6.04656,5.63492 -10.81967,12.41557 -13.61151,20.22709 -0.6104,1.70788 -1.19416,3.44259 -1.49906,5.23045 -0.27956,1.63923 -0.16183,3.32186 -0.24274,4.98278 0.37815,1.41018 0.49801,2.91656 1.13445,4.23054 2.44754,5.05316 9.17015,7.89809 14.51636,8.10891 1.43423,0.0566 2.85812,-0.26836 4.28718,-0.40254 1.42911,-0.54836 5.54663,-2.51527 4.28734,-1.64507 -2.24265,1.5497 -5.02657,5.24328 -7.2848,3.71636 -2.05273,-1.38796 3.88057,-3.09363 5.66864,-4.80914 4.41682,-4.23762 7.80795,-8.34618 11.04653,-13.57798 1.75808,-2.8401 3.16813,-5.88142 4.75219,-8.82213 1.39257,-3.50433 2.9788,-6.93777 4.17773,-10.51299 2.84962,-8.49765 4.35076,-15.99271 5.92441,-24.81504 2.17629,-12.2009 3.49159,-24.48813 4.78596,-36.80429 1.45702,-16.7411 2.89175,-33.58256 1.50287,-50.37188 -0.17288,-0.87068 -0.51581,-4.73459 -1.86187,-5.65772 -1.00676,-0.69045 -4.4881,1.92241 -3.37921,1.41189 10.7021,-4.9271 12.55135,-8.36903 7.63838,-1.85414 -0.78378,1.59033 -1.68522,3.1279 -2.35136,4.77098 -1.8359,4.52837 -3.58245,11.01321 -4.66523,15.59224 -1.71428,7.2496 -3.11058,14.85871 -4.10261,22.2322 -0.55337,4.11304 -0.90502,8.25071 -1.35753,12.37606 -1.16388,16.99617 2.0542,33.65397 7.96794,49.53502 2.60004,6.98226 4.35513,10.3242 7.46409,16.83305 3.07391,6.03832 6.22714,12.02964 9.03836,18.19579 0,0 -12.67124,7.12916 -12.67124,7.12916 l 0,0 c -2.62434,-6.25845 -5.52105,-12.38837 -8.36135,-18.55115 -2.94318,-6.73848 -4.5297,-10.06396 -7.04298,-17.23996 -5.64857,-16.12792 -9.16547,-32.89841 -8.13371,-50.07448 0.41394,-4.12916 0.741,-8.26797 1.24184,-12.3875 0.93167,-7.66324 2.0931,-14.6124 3.64917,-22.14861 0.94813,-4.59187 2.39994,-10.97545 3.98694,-15.55957 0.58167,-1.68017 1.37475,-3.27953 2.06212,-4.91929 5.14575,-8.17608 1.97224,-4.23485 17.21568,-13.08598 1.44345,-0.838136 3.38407,-0.875244 4.61041,0.42874 1.351,1.43653 1.49014,4.88466 1.72092,6.41554 0.78951,17.04739 -0.67088,34.08585 -2.30725,51.04685 -1.41437,12.36972 -2.84306,24.72789 -4.94981,37.00454 -1.48495,8.65321 -2.94529,16.51322 -5.56458,24.89981 -1.12014,3.58651 -2.61497,7.04506 -3.92246,10.5676 -3.83935,7.51907 -4.60245,9.91702 -9.68667,16.49445 -8.02197,10.37798 -20.11479,19.35235 -32.722,22.73489 -1.50299,0.0362 -3.01254,0.25365 -4.50896,0.10874 -5.94422,-0.57564 -12.64462,-3.89541 -15.32231,-9.49305 -0.69348,-1.44972 -0.83657,-3.10333 -1.25485,-4.65499 0.0504,-1.76975 -0.11302,-3.55862 0.15127,-5.30925 0.27903,-1.84832 0.86303,-3.64352 1.46734,-5.41241 2.72959,-7.98989 7.43212,-15.00415 13.43613,-20.89939 1.63734,-1.39351 3.10015,-3.02301 4.91202,-4.18055 10.12201,-6.46657 21.29989,-14.28705 34.03377,-12.9573 1.98698,0.20749 3.91226,0.81166 5.86838,1.21749 1.8404,0.7913 3.74795,1.44177 5.52118,2.37389 5.14144,2.70265 10.31905,6.97558 12.52775,12.52542 0.27538,0.69195 0.33169,1.45207 0.49754,2.17811 0,0 -13.34151,6.79783 -13.34151,6.79783 z"
           inkscape:connector-curvature="0" />
        <g
           transform="translate(24.243661,0)"
           id="g4017">
          <path
             inkscape:connector-curvature="0"
             d="m 365.42745,201.92379 c 1.183,8.77461 4.77848,17.00385 9.60841,24.37812 1.14699,1.75121 2.45665,3.39031 3.68498,5.08546 5.56039,7.79256 13.16633,13.47886 20.64361,19.25941 0,0 -12.36522,7.76782 -12.36522,7.76782 l 0,0 c -7.34374,-6.06838 -14.96088,-11.89837 -20.42722,-19.8507 -1.23863,-1.73659 -2.55048,-3.42321 -3.71589,-5.20977 -4.89323,-7.50125 -8.62705,-15.71651 -10.59194,-24.46821 0,0 13.16327,-6.96213 13.16327,-6.96213 z"
             id="path2999"
             style="fill:#000000;fill-opacity:1;fill-rule:nonzero;stroke:none" />
          <path
             inkscape:connector-curvature="0"
             d="m 392.13879,205.14732 c -5.09928,10.79843 -10.81656,21.28707 -15.92972,32.08513 -2.12018,4.48747 -3.89947,9.11529 -5.59147,13.77577 0,0 -13.13828,6.11128 -13.13828,6.11128 l 0,0 c 1.83666,-4.75624 3.76002,-9.47732 5.96067,-14.08024 5.04201,-10.53218 10.54415,-20.85565 15.21112,-31.55762 0,0 13.48768,-6.33432 13.48768,-6.33432 z"
             id="path3001"
             style="fill:#000000;fill-opacity:1;fill-rule:nonzero;stroke:none" />
        </g>
        <path
           inkscape:connector-curvature="0"
           id="path3879"
           d="m 228.81698,91.904785 c 4.93409,1.466547 2.56463,5.577778 -1.59173,2.410392 -8.99241,-0.886533 -21.7431,-3.912614 -27.55627,5.129503 -4.23268,8.32715 0.40287,17.65063 5.56189,24.3329 13.88807,26.56784 30.58537,51.93208 40.29164,80.46996 7.82042,23.39926 11.49515,49.15241 5.10788,73.32364 -5.45864,11.99209 -20.14822,15.33222 -32.17318,15.72438 -15.1023,0.63097 -29.73584,-9.26009 -35.37235,-23.13208 -3.8683,-8.39671 2.17626,-22.91405 12.86718,-19.1107 11.31158,3.59747 -2.57941,19.72558 -6.83207,9.92017 0.6988,-3.35779 3.43084,6.63402 5.24901,8.69026 4.38004,8.08723 12.78829,13.14438 21.69929,14.71434 9.09669,3.97716 21.53495,-1.48657 22.75064,-11.83391 3.82371,-13.70138 0.89771,-28.04867 -0.56599,-41.87174 -6.7865,-37.03563 -28.60642,-68.5152 -46.64048,-100.75938 -5.03614,-9.92623 -9.63351,-21.59072 -5.91148,-32.732242 6.88637,-10.131939 20.15309,-11.428969 31.10908,-14.023728 11.92023,-1.661131 26.91324,2.220827 31.57921,14.532846 2.80566,8.910044 -6.91609,19.961664 -16.06278,15.653314 -8.15393,-3.15392 -11.46759,-16.206813 -3.50949,-21.437925 z"
           style="stroke-width:10;stroke-miterlimit:4;stroke-dasharray:none" />
      </g>
    </g>
  </g>
</svg>
